<?xml version="1.0" encoding="UTF-8"?>
<svg id="Layer_1" data-name="Layer 1" xmlns="http://www.w3.org/2000/svg" viewBox="0 0 2947.14 4302.84">
  <defs>
    <style>
      .cls-1 {
        
      }
    </style>
  </defs>
  <path class="cls-1" d="m2836,1773.8c-183.67,294.02-554.87-738.25-1274.13-902.36-640.82-146.22-1119.94,560.4-1324.67,83.7-74.83-174.23-110.3-500.22-20.73-716.39C301.9,32.61,494.45-57.64,682.07,52.02c392.28,211.15,727.49,284.35,961.37,312.15,614.7,73.08,983.47,4.57,1171.67,419.38,28.18,62.15,109.63,241.64,103.51,527.82-1.19,56.32-7.31,341.91-82.6,462.45h-.02s0-.03,0-.03Z"/>
  <path class="cls-1" d="m448.32,322.61c323.68-272.97,589.17,162.79,1123.75,234.72,382.68,51.49,493.52-138.59,840.93,29.13,379.01,182.95,408.72,487.18,413.51,564.32,9,144.54-15.74,354.68-81.65,430.78-67.06,77.42-152.85-11.61-242.6-107.94-498.24-534.8-551.7-607.65-661.31-676.85-163.6-103.27-305.27-105.6-488.35-108.6-288.23-4.74-435.76-7.15-632.26,129.25-107.38,74.54-185.74,160.25-276.9,119.96-96.69-42.75-179.21-214.68-151.9-369.76,22.85-129.8,116.09-210.69,156.77-244.99h0l.02-.02Z"/>
  <path class="cls-1" d="m2860.4,4252.2c-191.27,286.99-599.15-862.32-1365.43-1137.15-682.71-244.85-1182.42,439.6-1406.17-95.8-81.78-195.67-123.73-547.22-31.41-764.54,88.04-207.28,291.41-276.38,492.17-133.6,419.51,279.22,776.6,403.82,1025.41,466,654,163.43,1044.87,142.07,1250.23,609.34,30.75,70,119.63,272.22,116.88,575.63-.54,59.72-3.28,362.52-81.68,480.15h0v-.02Z"/>
  <path class="cls-1" d="m296.06,2336.41c340.3-245.07,628.03,255.27,1196.91,406.33,407.21,108.13,522.48-78.51,893.76,148.27,405.03,247.4,440.59,575,446.71,657.69,11.45,154.93-12.06,374.9-81.08,446.62-70.24,72.96-162.54-33.66-259.15-148.6-536.33-638.12-594.07-723.02-711.44-811.87-175.16-132.62-325.7-154.85-520.23-183.59-306.27-45.25-463.03-68.39-670,49.2-113.1,64.28-195.23,144.46-292.6,88.91-103.28-58.94-193.2-253.24-166.23-414.34,22.58-134.82,120.56-207.81,163.33-238.61h0l.02-.02Z"/>
  <path class="cls-1" d="m432.83,2544.18c57.76-97.37,179.35-59.05,197.63,68.91,8.4,58.82-5.09,136.17-33.09,180.38-61.51,97.1-186.78,24.41-196.52-104.79-3.88-51.52,10.85-108.89,31.98-144.51Z"/>
  <path class="cls-1" d="m2426.78,955.82c55.59-98.88,169.78-77.8,185.53,40.47,7.24,54.37-6.37,128.9-33.3,174.03-59.13,99.08-176.39,46.11-184.07-74.4-3.06-48.05,11.5-103.92,31.83-140.08h0v-.02Z"/>
</svg>